<svg version="1.1" id="Layer_1" xmlns="http://www.w3.org/2000/svg" xmlns:xlink="http://www.w3.org/1999/xlink" x="0px" y="0px"
	 width="100%" viewBox="0 0 512 512" enable-background="new 0 0 512 512" xml:space="preserve">
<path fill="#000000" opacity="1.000000" stroke="none" 
	d="
M513.000000,159.541931 
	C511.044464,162.304825 508.763702,164.075836 505.997986,165.456390 
	C425.782379,205.497604 345.581024,245.567688 265.453674,285.785065 
	C259.532715,288.756897 254.393921,288.810272 248.486572,285.849274 
	C168.727158,245.870926 88.904320,206.019135 9.071199,166.188095 
	C6.352194,164.831512 4.063738,162.958893 1.322139,161.110779 
	C1.000000,156.975449 1.000000,152.950912 1.000000,148.463181 
	C17.590019,137.428329 35.694893,129.759003 53.194534,120.951035 
	C117.539192,88.564896 182.063629,56.535816 246.387802,24.109287 
	C254.042587,20.250422 260.511658,20.604412 267.987488,24.368036 
	C330.700348,55.940086 393.534760,87.270676 456.336945,118.665237 
	C473.152405,127.071236 489.968262,135.476791 506.823364,143.802734 
	C509.152985,144.953491 510.929779,146.581741 512.743896,148.779968 
	C513.000000,152.361282 513.000000,155.722580 513.000000,159.541931 
M196.608551,234.773804 
	C215.219727,244.059418 233.871719,253.264938 252.404510,262.704468 
	C255.742920,264.404846 258.415497,264.342529 261.700714,262.696259 
	C325.359192,230.796631 389.064178,198.989807 452.754425,167.153534 
	C460.576630,163.243515 468.369080,159.274002 477.019165,154.905945 
	C474.586700,153.476364 473.097595,152.479553 471.507690,151.684280 
	C402.221832,117.028450 332.894501,82.455154 263.702515,47.613033 
	C258.790192,45.139397 255.101715,45.279606 250.411331,47.636044 
	C180.989578,82.513458 111.496246,117.248383 42.024261,152.025818 
	C40.588497,152.744568 38.894005,153.161209 37.980240,155.369370 
	C90.643158,181.742249 143.285736,208.104950 196.608551,234.773804 
z"/>
<path fill="#000000" opacity="1.000000" stroke="none" 
	d="
M513.000000,262.541931 
	C505.198853,269.709686 495.548920,273.135376 486.550934,277.653931 
	C413.254364,314.461517 339.857880,351.070160 266.578613,387.912018 
	C260.047729,391.195465 254.394333,391.291565 247.831863,387.997314 
	C168.218185,348.032654 88.516830,308.242615 8.829428,268.424896 
	C6.139246,267.080688 3.567345,265.625061 1.304680,263.139709 
	C1.000000,259.307098 1.000000,255.614182 1.000000,251.460632 
	C4.088427,248.236008 7.551413,246.081863 11.271841,244.238770 
	C27.087328,236.403687 42.852779,228.467621 58.638382,220.572205 
	C59.680759,220.050858 60.715302,219.502853 61.793407,219.065674 
	C68.835388,216.210083 75.555321,217.899307 77.595413,223.686005 
	C79.653557,229.523865 78.894394,235.937119 71.506882,239.682724 
	C61.418907,244.797546 51.299519,249.850403 41.198002,254.938568 
	C40.174278,255.454224 39.180851,256.030029 37.356991,257.021851 
	C44.241390,260.506836 50.524185,263.721405 56.836311,266.877289 
	C122.180847,299.547821 187.540970,332.187256 252.843735,364.941040 
	C255.872940,366.460388 258.233612,366.432465 261.203369,364.944702 
	C331.860504,329.547699 402.557739,294.230743 473.244476,258.892883 
	C474.128357,258.451019 474.971069,257.926910 475.842346,257.435913 
	C475.489929,255.693253 473.996643,255.542145 472.887634,254.982910 
	C463.086151,250.040298 453.244781,245.176270 443.469696,240.182236 
	C438.961243,237.878891 435.662537,234.676102 435.622772,229.043427 
	C435.562317,220.490509 441.641266,215.811066 449.800537,218.459000 
	C456.474243,220.624832 462.470490,224.296860 468.730011,227.370239 
	C480.970856,233.380417 493.130371,239.556076 505.336121,245.637970 
	C508.187988,247.059006 510.821625,248.706268 512.751343,251.766098 
	C513.000000,255.361282 513.000000,258.722565 513.000000,262.541931 
z"/>
<path fill="#000000" opacity="1.000000" stroke="none" 
	d="
M1.000000,353.460632 
	C13.617717,344.517120 27.799212,339.004578 41.146175,331.905182 
	C48.046448,328.234863 55.096954,324.833527 62.177113,321.518982 
	C68.103920,318.744354 74.603104,320.621002 77.311600,325.586304 
	C80.373428,331.199341 78.393715,337.981903 72.236084,341.262207 
	C63.135662,346.110168 53.838097,350.587738 44.630135,355.234253 
	C42.429443,356.344727 40.251030,357.499329 37.570446,358.888611 
	C40.691654,361.677338 44.089432,362.984344 47.255257,364.570007 
	C115.069328,398.536224 182.927994,432.413574 250.698441,466.466553 
	C255.196091,468.726501 258.729401,468.670410 263.222595,466.413116 
	C331.965057,431.878967 400.796539,397.522034 469.604614,363.118439 
	C471.673950,362.083740 473.714233,360.990936 475.794678,359.911407 
	C475.291687,357.448273 473.197357,357.191467 471.730774,356.438049 
	C462.262238,351.573822 452.689331,346.912628 443.226410,342.037842 
	C439.700226,340.221344 436.038025,338.285156 435.687683,333.571594 
	C435.370911,329.310242 435.444733,325.076599 439.505524,322.375336 
	C443.694427,319.588898 448.006989,319.417450 452.621765,321.756622 
	C470.876740,331.009857 489.193420,340.141815 507.519348,349.254120 
	C509.871155,350.423523 511.647186,352.001740 512.872803,354.682129 
	C513.000000,358.030609 513.000000,361.061188 513.000000,364.545898 
	C510.993927,367.515778 508.455994,369.254669 505.566406,370.696960 
	C426.307434,410.256958 347.032288,449.785065 267.898804,489.594818 
	C260.131989,493.502045 253.712784,493.485657 245.927704,489.569794 
	C166.731247,449.734253 87.382988,410.200409 8.050905,370.634888 
	C5.448366,369.336914 3.166308,367.833221 1.248118,365.226257 
	C1.000000,361.307098 1.000000,357.614166 1.000000,353.460632 
z"/>
</svg>